# xmcd
#
# Track frame offsets:
#	150
#	22305
#	35667
#	47595
#	59426
#	78408
#	93728
#	106820
#	122086
#	135994
#	155205
#	170700
#	186705
#
# Disc length: 2646 seconds
#
# Revision: 0
# Processed by: cddbd v1.5.1PL2 Copyright (c) Steve Scherf et al.
# Submitted via: EasyCDDAExtractor 8.2.3.1
#
DISCID=be0a540d
DTITLE=Laura Lee Jones - Parton Me
DYEAR=2006
DGENRE=Country
TTITLE0=Light Of A Clear Blue Morning
TTITLE1=Golden Streets Of Glory
TTITLE2=To Daddy
TTITLE3=Jolene
TTITLE4=Smokey Mountain Memories
TTITLE5=Do I Ever Cross Your Mind
TTITLE6=My Tennessee Mountain Home
TTITLE7=Coat Of Many Colors
TTITLE8=Apple Jack
TTITLE9=God Won't Get You
TTITLE10=Tennessee Homesick Blues
TTITLE11=The Seeker
TTITLE12=Me And Little Andy
EXTD=
EXTT0=
EXTT1=
EXTT2=
EXTT3=
EXTT4=
EXTT5=
EXTT6=
EXTT7=
EXTT8=
EXTT9=
EXTT10=
EXTT11=
EXTT12=
PLAYORDER=
